<svg xmlns="http://www.w3.org/2000/svg" viewBox="0 0 64 64" aria-hidden="true">
  <path fill="#e6b31e" d="M31.7 55c-1 0-1.9-.8-1.9-1.9V36.8c-6.2 5.8-14.7 7.3-18.9 3.1-4.3-4.3-2.7-12.8 3.5-19 4.4-4.4 9.7-6.5 13.8-5.8.1-4.3 2.4-8.1 6-8.1 4 0 6.3 4.5 5.8 9.3 4.1-1.7 10.2.3 15.1 5.2 6.2 6.2 7.8 14.7 3.5 19-4.2 4.2-12.9 2.5-19.2-3.4v16c0 1.1-.8 1.9-1.9 1.9h-5.8z"/>
  <path fill="none" stroke="#97720d" stroke-width="2.3" stroke-linecap="round" d="M34 15v38M32 32c-6 1-11.7-2.9-15.9-7M36 32c5.9 1 11.6-2.7 15.7-6.8"/>
</svg>