<svg xmlns="http://www.w3.org/2000/svg" viewBox="0 0 900 520">
<defs><linearGradient id="g" x1="0" x2="1" y1="0" y2="1"><stop stop-color="#dfe9d9"/><stop offset=".6" stop-color="#86a56d"/><stop offset="1" stop-color="#174f33"/></linearGradient></defs>
<rect width="900" height="520" fill="url(#g)"/><path d="M0 380 C170 260 300 420 465 300 C610 195 735 230 900 145 L900 520 L0 520Z" fill="#0b6b50" opacity=".75"/>
<path d="M0 430 C160 330 350 500 535 350 C690 225 805 265 900 210 L900 520 L0 520Z" fill="#eef3ec" opacity=".42"/>
<circle cx="760" cy="90" r="60" fill="#f1cf5a" opacity=".6"/><g fill="#0c5a32" opacity=".55"><circle cx="115" cy="120" r="52"/><circle cx="175" cy="95" r="68"/><circle cx="250" cy="130" r="58"/><circle cx="655" cy="135" r="70"/><circle cx="820" cy="145" r="84"/></g>
</svg>